<svg width="512" height="512" viewBox="0 0 512 512" fill="none" xmlns="http://www.w3.org/2000/svg">
<rect width="512" height="512" fill="black"/>
<path d="M353.807 352C338.416 351.872 323.216 348.421 309.158 341.862C295.101 335.303 282.49 325.777 272.114 313.883L256.5 296.154L240.86 313.883C230.486 325.772 217.878 335.294 203.826 341.853C189.774 348.411 174.579 351.866 159.193 352C135.419 351.246 112.9 340.669 96.5639 322.583C80.228 304.497 71.4067 280.376 72.031 255.5C71.4067 230.624 80.228 206.503 96.5639 188.417C112.9 170.331 135.419 159.754 159.193 159C174.584 159.13 189.783 162.583 203.84 169.142C217.897 175.701 230.509 185.225 240.886 197.118L256.5 214.846L272.154 197.118C282.525 185.228 295.13 175.706 309.18 169.147C323.23 162.588 338.423 159.134 353.807 159C377.581 159.754 400.1 170.331 416.436 188.417C432.772 206.503 441.593 230.624 440.969 255.5C441.593 280.376 432.772 304.497 416.436 322.583C400.1 340.669 377.581 351.246 353.807 352ZM292.366 255.5L310.813 276.482C316.219 282.835 322.839 287.93 330.245 291.44C337.651 294.95 345.678 296.795 353.807 296.857C363.596 296.094 372.703 291.324 379.153 283.582C385.603 275.84 388.877 265.75 388.264 255.5C388.877 245.25 385.603 235.16 379.153 227.418C372.703 219.676 363.596 214.906 353.807 214.143C345.689 214.214 337.674 216.065 330.281 219.574C322.887 223.083 316.278 228.174 310.879 234.518L292.366 255.5ZM159.193 214.143C149.404 214.906 140.297 219.676 133.847 227.418C127.397 235.16 124.123 245.25 124.736 255.5C124.123 265.75 127.397 275.84 133.847 283.582C140.297 291.324 149.404 296.094 159.193 296.857C167.311 296.786 175.326 294.936 182.719 291.426C190.113 287.917 196.722 282.826 202.121 276.482L220.634 255.5L202.121 234.518C196.722 228.174 190.113 223.083 182.719 219.574C175.326 216.065 167.311 214.214 159.193 214.143Z" fill="white"/>
</svg>
